# xmcd
#
# Track frame offsets:
#	150
#	21474
#	37856
#	57604
#	74203
#	91504
#	107053
#	119892
#	142951
#	175846
#	195356
#	214476
#	234824
#	249724
#	277539
#	291628
#	309427
#	323721
#
# Disc length: 4594 seconds
#
# Revision: 0
# Processed by: cddbd v1.4b42PL1 Copyright (c) Steve Scherf et al.
# Submitted via: EasyCDDAExtractor 4.5.0.2
#
DISCID=0d11f012
DTITLE=Gino Vannelli - Ultimate Collection
DYEAR=1900
DGENRE=AlternRock
TTITLE0=Appalosa
TTITLE1=I Just Wanna Stop
TTITLE2=Living Inside Inside Myself
TTITLE3=Hurts To Be In Love
TTITLE4=The River Must Flow
TTITLE5=Fly Into This Night
TTITLE6=Crazy Life
TTITLE7=Nightwalker
TTITLE8=Brother To Brother
TTITLE9=One Night With You
TTITLE10=Wheels Of Life
TTITLE11=Love My Life
TTITLE12=People Gotta Move
TTITLE13=Powerful People
TTITLE14=Mama Coco
TTITLE15=Love Me Now
TTITLE16=Black Cars
TTITLE17=Wild Horses
EXTD=
EXTT0=
EXTT1=
EXTT2=
EXTT3=
EXTT4=
EXTT5=
EXTT6=
EXTT7=
EXTT8=
EXTT9=
EXTT10=
EXTT11=
EXTT12=
EXTT13=
EXTT14=
EXTT15=
EXTT16=
EXTT17=
PLAYORDER=
